<svg xmlns="http://www.w3.org/2000/svg" xmlns:xlink="http://www.w3.org/1999/xlink" width="1000" zoomAndPan="magnify" viewBox="0 0 750 749.999995" height="1000" preserveAspectRatio="xMidYMid meet" version="1.0"><defs><clipPath id="f91e943f34"><path d="M 45 0 L 705 0 C 716.933594 0 728.378906 4.742188 736.820312 13.179688 C 745.257812 21.621094 750 33.066406 750 45 L 750 705 C 750 716.933594 745.257812 728.378906 736.820312 736.820312 C 728.378906 745.257812 716.933594 750 705 750 L 45 750 C 20.148438 750 0 729.851562 0 705 L 0 45 C 0 20.148438 20.148438 0 45 0 Z M 45 0 " clip-rule="nonzero"/></clipPath><clipPath id="3b66001fc7"><path d="M 0 0 L 750 0 L 750 750 L 0 750 Z M 0 0 " clip-rule="nonzero"/></clipPath><clipPath id="b4c2320db9"><path d="M 45 0 L 705 0 C 716.933594 0 728.378906 4.742188 736.820312 13.179688 C 745.257812 21.621094 750 33.066406 750 45 L 750 705 C 750 716.933594 745.257812 728.378906 736.820312 736.820312 C 728.378906 745.257812 716.933594 750 705 750 L 45 750 C 20.148438 750 0 729.851562 0 705 L 0 45 C 0 20.148438 20.148438 0 45 0 Z M 45 0 " clip-rule="nonzero"/></clipPath><clipPath id="d889cfb676"><rect x="0" width="750" y="0" height="750"/></clipPath><clipPath id="d1d42dde5c"><path d="M 375 43.648438 L 706.351562 43.648438 L 706.351562 375 L 375 375 Z M 375 43.648438 " clip-rule="nonzero"/></clipPath><clipPath id="73de8226d9"><path d="M 397.5 43.648438 L 683.851562 43.648438 C 689.820312 43.648438 695.542969 46.019531 699.761719 50.238281 C 703.980469 54.457031 706.351562 60.179688 706.351562 66.148438 L 706.351562 352.5 C 706.351562 358.46875 703.980469 364.191406 699.761719 368.410156 C 695.542969 372.628906 689.820312 375 683.851562 375 L 397.5 375 C 385.074219 375 375 364.925781 375 352.5 L 375 66.148438 C 375 53.722656 385.074219 43.648438 397.5 43.648438 Z M 397.5 43.648438 " clip-rule="nonzero"/></clipPath><clipPath id="7699355168"><path d="M 0 0.648438 L 331.351562 0.648438 L 331.351562 332 L 0 332 Z M 0 0.648438 " clip-rule="nonzero"/></clipPath><clipPath id="a5fc91aded"><path d="M 22.5 0.648438 L 308.851562 0.648438 C 314.820312 0.648438 320.542969 3.019531 324.761719 7.238281 C 328.980469 11.457031 331.351562 17.179688 331.351562 23.148438 L 331.351562 309.5 C 331.351562 315.46875 328.980469 321.191406 324.761719 325.410156 C 320.542969 329.628906 314.820312 332 308.851562 332 L 22.5 332 C 10.074219 332 0 321.925781 0 309.5 L 0 23.148438 C 0 10.722656 10.074219 0.648438 22.5 0.648438 Z M 22.5 0.648438 " clip-rule="nonzero"/></clipPath><clipPath id="452b7f670c"><rect x="0" width="332" y="0" height="332"/></clipPath><clipPath id="a0c894debd"><path d="M 375 375 L 706.351562 375 L 706.351562 706.351562 L 375 706.351562 Z M 375 375 " clip-rule="nonzero"/></clipPath><clipPath id="2c3a30c7f4"><path d="M 397.5 375 L 683.851562 375 C 689.820312 375 695.542969 377.371094 699.761719 381.589844 C 703.980469 385.808594 706.351562 391.53125 706.351562 397.5 L 706.351562 683.851562 C 706.351562 689.820312 703.980469 695.542969 699.761719 699.761719 C 695.542969 703.980469 689.820312 706.351562 683.851562 706.351562 L 397.5 706.351562 C 385.074219 706.351562 375 696.277344 375 683.851562 L 375 397.5 C 375 385.074219 385.074219 375 397.5 375 Z M 397.5 375 " clip-rule="nonzero"/></clipPath><clipPath id="9e6d79b11c"><path d="M 0 0 L 331.351562 0 L 331.351562 331.351562 L 0 331.351562 Z M 0 0 " clip-rule="nonzero"/></clipPath><clipPath id="0b400b3e4e"><path d="M 22.5 0 L 308.851562 0 C 314.820312 0 320.542969 2.371094 324.761719 6.589844 C 328.980469 10.808594 331.351562 16.53125 331.351562 22.5 L 331.351562 308.851562 C 331.351562 314.820312 328.980469 320.542969 324.761719 324.761719 C 320.542969 328.980469 314.820312 331.351562 308.851562 331.351562 L 22.5 331.351562 C 10.074219 331.351562 0 321.277344 0 308.851562 L 0 22.5 C 0 10.074219 10.074219 0 22.5 0 Z M 22.5 0 " clip-rule="nonzero"/></clipPath><clipPath id="1878a5637b"><rect x="0" width="332" y="0" height="332"/></clipPath><clipPath id="77beb08faf"><path d="M 375 375 L 706.351562 375 L 706.351562 442.847656 L 375 442.847656 Z M 375 375 " clip-rule="nonzero"/></clipPath><clipPath id="6f8c2b8e35"><path d="M 0 0 L 331.351562 0 L 331.351562 67.847656 L 0 67.847656 Z M 0 0 " clip-rule="nonzero"/></clipPath><clipPath id="df3040706d"><rect x="0" width="332" y="0" height="68"/></clipPath><clipPath id="ea3cc547a9"><path d="M 375.003906 374.992188 L 442.851562 374.992188 L 442.851562 706.34375 L 375.003906 706.34375 Z M 375.003906 374.992188 " clip-rule="nonzero"/></clipPath><clipPath id="ec99115c66"><path d="M 0.00390625 1 L 67.851562 1 L 67.851562 332.34375 L 0.00390625 332.34375 Z M 0.00390625 1 " clip-rule="nonzero"/></clipPath><clipPath id="575cba5219"><rect x="0" width="68" y="0" height="333"/></clipPath><clipPath id="e6d3a72be9"><path d="M 43.648438 375 L 375 375 L 375 706.351562 L 43.648438 706.351562 Z M 43.648438 375 " clip-rule="nonzero"/></clipPath><clipPath id="d578f041bc"><path d="M 66.148438 375 L 352.5 375 C 358.46875 375 364.191406 377.371094 368.410156 381.589844 C 372.628906 385.808594 375 391.53125 375 397.5 L 375 683.851562 C 375 689.820312 372.628906 695.542969 368.410156 699.761719 C 364.191406 703.980469 358.46875 706.351562 352.5 706.351562 L 66.148438 706.351562 C 53.722656 706.351562 43.648438 696.277344 43.648438 683.851562 L 43.648438 397.5 C 43.648438 385.074219 53.722656 375 66.148438 375 Z M 66.148438 375 " clip-rule="nonzero"/></clipPath><clipPath id="b2be17c382"><path d="M 0.648438 0 L 332 0 L 332 331.351562 L 0.648438 331.351562 Z M 0.648438 0 " clip-rule="nonzero"/></clipPath><clipPath id="7139573f31"><path d="M 23.148438 0 L 309.5 0 C 315.46875 0 321.191406 2.371094 325.410156 6.589844 C 329.628906 10.808594 332 16.53125 332 22.5 L 332 308.851562 C 332 314.820312 329.628906 320.542969 325.410156 324.761719 C 321.191406 328.980469 315.46875 331.351562 309.5 331.351562 L 23.148438 331.351562 C 10.722656 331.351562 0.648438 321.277344 0.648438 308.851562 L 0.648438 22.5 C 0.648438 10.074219 10.722656 0 23.148438 0 Z M 23.148438 0 " clip-rule="nonzero"/></clipPath><clipPath id="76709c2e1f"><rect x="0" width="332" y="0" height="332"/></clipPath><clipPath id="84e964db3d"><path d="M 43.648438 375 L 375 375 L 375 433.71875 L 43.648438 433.71875 Z M 43.648438 375 " clip-rule="nonzero"/></clipPath><clipPath id="7718160592"><path d="M 0.648438 0 L 332 0 L 332 58.71875 L 0.648438 58.71875 Z M 0.648438 0 " clip-rule="nonzero"/></clipPath><clipPath id="c8f520b07a"><rect x="0" width="332" y="0" height="59"/></clipPath><clipPath id="861a39ffc8"><path d="M 316.285156 374.996094 L 375.003906 374.996094 L 375.003906 706.34375 L 316.285156 706.34375 Z M 316.285156 374.996094 " clip-rule="nonzero"/></clipPath><clipPath id="121d8b7732"><path d="M 0.285156 0.996094 L 59.003906 0.996094 L 59.003906 332.34375 L 0.285156 332.34375 Z M 0.285156 0.996094 " clip-rule="nonzero"/></clipPath><clipPath id="a691ee68b0"><rect x="0" width="60" y="0" height="333"/></clipPath><clipPath id="e4a44f09c1"><path d="M 43.648438 43.648438 L 375 43.648438 L 375 375 L 43.648438 375 Z M 43.648438 43.648438 " clip-rule="nonzero"/></clipPath><clipPath id="c0ba3dbaf0"><path d="M 66.148438 43.648438 L 352.5 43.648438 C 358.46875 43.648438 364.191406 46.019531 368.410156 50.238281 C 372.628906 54.457031 375 60.179688 375 66.148438 L 375 352.5 C 375 358.46875 372.628906 364.191406 368.410156 368.410156 C 364.191406 372.628906 358.46875 375 352.5 375 L 66.148438 375 C 53.722656 375 43.648438 364.925781 43.648438 352.5 L 43.648438 66.148438 C 43.648438 53.722656 53.722656 43.648438 66.148438 43.648438 Z M 66.148438 43.648438 " clip-rule="nonzero"/></clipPath><clipPath id="c0c56122e5"><path d="M 0.648438 0.648438 L 332 0.648438 L 332 332 L 0.648438 332 Z M 0.648438 0.648438 " clip-rule="nonzero"/></clipPath><clipPath id="36e9868c46"><path d="M 23.148438 0.648438 L 309.5 0.648438 C 315.46875 0.648438 321.191406 3.019531 325.410156 7.238281 C 329.628906 11.457031 332 17.179688 332 23.148438 L 332 309.5 C 332 315.46875 329.628906 321.191406 325.410156 325.410156 C 321.191406 329.628906 315.46875 332 309.5 332 L 23.148438 332 C 10.722656 332 0.648438 321.925781 0.648438 309.5 L 0.648438 23.148438 C 0.648438 10.722656 10.722656 0.648438 23.148438 0.648438 Z M 23.148438 0.648438 " clip-rule="nonzero"/></clipPath><clipPath id="b5844ebc85"><rect x="0" width="332" y="0" height="332"/></clipPath><clipPath id="edf71feaac"><path d="M 43.648438 319.488281 L 375 319.488281 L 375 375 L 43.648438 375 Z M 43.648438 319.488281 " clip-rule="nonzero"/></clipPath><clipPath id="d8a970eeda"><path d="M 0.648438 0.488281 L 332 0.488281 L 332 56 L 0.648438 56 Z M 0.648438 0.488281 " clip-rule="nonzero"/></clipPath><clipPath id="8dc5c93355"><rect x="0" width="332" y="0" height="56"/></clipPath><clipPath id="03ff4c9529"><path d="M 319.492188 43.640625 L 375.003906 43.640625 L 375.003906 374.992188 L 319.492188 374.992188 Z M 319.492188 43.640625 " clip-rule="nonzero"/></clipPath><clipPath id="92469d41ba"><path d="M 0.492188 0.640625 L 56.003906 0.640625 L 56.003906 331.992188 L 0.492188 331.992188 Z M 0.492188 0.640625 " clip-rule="nonzero"/></clipPath><clipPath id="31e23eb381"><rect x="0" width="57" y="0" height="332"/></clipPath><clipPath id="4e7d656926"><path d="M 375 43.648438 L 420.886719 43.648438 L 420.886719 375 L 375 375 Z M 375 43.648438 " clip-rule="nonzero"/></clipPath><clipPath id="ab88ed4a38"><path d="M 0 0.648438 L 45.886719 0.648438 L 45.886719 332 L 0 332 Z M 0 0.648438 " clip-rule="nonzero"/></clipPath><clipPath id="94b3fe6be9"><rect x="0" width="46" y="0" height="332"/></clipPath><clipPath id="d2d493335e"><path d="M 374.992188 329.113281 L 706.34375 329.113281 L 706.34375 375.003906 L 374.992188 375.003906 Z M 374.992188 329.113281 " clip-rule="nonzero"/></clipPath><clipPath id="640dc21720"><path d="M 0.992188 0.113281 L 332.34375 0.113281 L 332.34375 46.003906 L 0.992188 46.003906 Z M 0.992188 0.113281 " clip-rule="nonzero"/></clipPath><clipPath id="18f0d84106"><rect x="0" width="333" y="0" height="47"/></clipPath><clipPath id="02fc02a179"><path d="M 87.722656 87.722656 L 662.222656 87.722656 L 662.222656 662.222656 L 87.722656 662.222656 Z M 87.722656 87.722656 " clip-rule="nonzero"/></clipPath></defs><g clip-path="url(#f91e943f34)"><g transform="matrix(1, 0, 0, 1, 0, -0.000000000000042435)"><g clip-path="url(#d889cfb676)"><g clip-path="url(#3b66001fc7)"><g clip-path="url(#b4c2320db9)"><rect x="-165" width="1080" fill="#000000" height="1079.999992" y="-164.999999" fill-opacity="1"/></g></g></g></g></g><g clip-path="url(#d1d42dde5c)"><g clip-path="url(#73de8226d9)"><g transform="matrix(1, 0, 0, 1, 375, 43)"><g clip-path="url(#452b7f670c)"><g clip-path="url(#7699355168)"><g clip-path="url(#a5fc91aded)"><path fill="#62e060" d="M 0 0.648438 L 331.351562 0.648438 L 331.351562 332 L 0 332 Z M 0 0.648438 " fill-opacity="1" fill-rule="nonzero"/></g></g></g></g></g></g><g clip-path="url(#a0c894debd)"><g clip-path="url(#2c3a30c7f4)"><g transform="matrix(1, 0, 0, 1, 375, 375)"><g clip-path="url(#1878a5637b)"><g clip-path="url(#9e6d79b11c)"><g clip-path="url(#0b400b3e4e)"><path fill="#295c28" d="M 0 0 L 331.351562 0 L 331.351562 331.351562 L 0 331.351562 Z M 0 0 " fill-opacity="1" fill-rule="nonzero"/></g></g></g></g></g></g><g clip-path="url(#77beb08faf)"><g transform="matrix(1, 0, 0, 1, 375, 375)"><g clip-path="url(#df3040706d)"><g clip-path="url(#6f8c2b8e35)"><path fill="#295c28" d="M 0 0 L 331.292969 0 L 331.292969 67.847656 L 0 67.847656 Z M 0 0 " fill-opacity="1" fill-rule="nonzero"/></g></g></g></g><g clip-path="url(#ea3cc547a9)"><g transform="matrix(1, 0, 0, 1, 375, 374)"><g clip-path="url(#575cba5219)"><g clip-path="url(#ec99115c66)"><path fill="#295c28" d="M 0.00390625 332.34375 L 0.00390625 1.054688 L 67.851562 1.054688 L 67.851562 332.34375 Z M 0.00390625 332.34375 " fill-opacity="1" fill-rule="nonzero"/></g></g></g></g><g clip-path="url(#e6d3a72be9)"><g clip-path="url(#d578f041bc)"><g transform="matrix(1, 0, 0, 1, 43, 375)"><g clip-path="url(#76709c2e1f)"><g clip-path="url(#b2be17c382)"><g clip-path="url(#7139573f31)"><path fill="#439a41" d="M 0.648438 0 L 332 0 L 332 331.351562 L 0.648438 331.351562 Z M 0.648438 0 " fill-opacity="1" fill-rule="nonzero"/></g></g></g></g></g></g><g clip-path="url(#84e964db3d)"><g transform="matrix(1, 0, 0, 1, 43, 375)"><g clip-path="url(#c8f520b07a)"><g clip-path="url(#7718160592)"><path fill="#439a41" d="M 0.648438 0 L 332.085938 0 L 332.085938 58.71875 L 0.648438 58.71875 Z M 0.648438 0 " fill-opacity="1" fill-rule="nonzero"/></g></g></g></g><g clip-path="url(#861a39ffc8)"><g transform="matrix(1, 0, 0, 1, 316, 374)"><g clip-path="url(#a691ee68b0)"><g clip-path="url(#121d8b7732)"><path fill="#439a41" d="M 0.285156 332.34375 L 0.285156 0.90625 L 59.003906 0.90625 L 59.003906 332.34375 Z M 0.285156 332.34375 " fill-opacity="1" fill-rule="nonzero"/></g></g></g></g><g clip-path="url(#e4a44f09c1)"><g clip-path="url(#c0ba3dbaf0)"><g transform="matrix(1, 0, 0, 1, 43, 43)"><g clip-path="url(#b5844ebc85)"><g clip-path="url(#c0c56122e5)"><g clip-path="url(#36e9868c46)"><path fill="#a5ffa3" d="M 0.648438 0.648438 L 332 0.648438 L 332 332 L 0.648438 332 Z M 0.648438 0.648438 " fill-opacity="1" fill-rule="nonzero"/></g></g></g></g></g></g><g clip-path="url(#edf71feaac)"><g transform="matrix(1, 0, 0, 1, 43, 319)"><g clip-path="url(#8dc5c93355)"><g clip-path="url(#d8a970eeda)"><path fill="#a5ffa3" d="M 0.648438 0.488281 L 331.980469 0.488281 L 331.980469 56 L 0.648438 56 Z M 0.648438 0.488281 " fill-opacity="1" fill-rule="nonzero"/></g></g></g></g><g clip-path="url(#03ff4c9529)"><g transform="matrix(1, 0, 0, 1, 319, 43)"><g clip-path="url(#31e23eb381)"><g clip-path="url(#92469d41ba)"><path fill="#a5ffa3" d="M 0.492188 331.992188 L 0.492188 0.660156 L 56.003906 0.660156 L 56.003906 331.992188 Z M 0.492188 331.992188 " fill-opacity="1" fill-rule="nonzero"/></g></g></g></g><g clip-path="url(#4e7d656926)"><g transform="matrix(1, 0, 0, 1, 375, 43)"><g clip-path="url(#94b3fe6be9)"><g clip-path="url(#ab88ed4a38)"><path fill="#62e060" d="M 0 0.648438 L 45.886719 0.648438 L 45.886719 332.085938 L 0 332.085938 Z M 0 0.648438 " fill-opacity="1" fill-rule="nonzero"/></g></g></g></g><g clip-path="url(#d2d493335e)"><g transform="matrix(1, 0, 0, 1, 374, 329)"><g clip-path="url(#18f0d84106)"><g clip-path="url(#640dc21720)"><path fill="#62e060" d="M 332.34375 0.113281 L 332.34375 46.003906 L 0.90625 46.003906 L 0.90625 0.113281 Z M 332.34375 0.113281 " fill-opacity="1" fill-rule="nonzero"/></g></g></g></g><g clip-path="url(#02fc02a179)"><path fill="#000000" d="M 614.34375 87.722656 L 135.601562 87.722656 C 109.273438 87.722656 87.722656 109.273438 87.722656 135.601562 L 87.722656 614.351562 C 87.722656 640.671875 109.273438 662.222656 135.601562 662.222656 L 614.351562 662.222656 C 640.671875 662.222656 662.222656 640.671875 662.222656 614.34375 L 662.222656 135.601562 C 662.222656 109.273438 640.671875 87.722656 614.34375 87.722656 Z M 207.414062 279.226562 C 207.414062 239.578125 239.578125 207.414062 279.226562 207.414062 C 318.875 207.414062 351.039062 239.578125 351.039062 279.226562 L 303.160156 279.226562 C 303.160156 265.996094 292.4375 255.289062 279.226562 255.289062 C 266.011719 255.289062 255.289062 265.996094 255.289062 279.226562 L 255.289062 374.953125 C 255.289062 388.15625 266.003906 398.886719 279.226562 398.886719 C 292.445312 398.886719 303.160156 388.15625 303.160156 374.953125 L 351.039062 374.953125 C 351.039062 414.621094 318.875 446.765625 279.226562 446.765625 C 239.578125 446.765625 207.414062 414.613281 207.414062 374.953125 Z M 542.53125 542.53125 L 207.414062 542.53125 L 207.414062 494.664062 L 542.539062 494.664062 L 542.539062 542.53125 Z M 482.691406 446.785156 L 434.8125 446.785156 L 374.972656 207.414062 L 424.324219 207.414062 L 458.757812 345.148438 L 493.191406 207.414062 L 542.53125 207.414062 Z M 482.691406 446.785156 " fill-opacity="1" fill-rule="nonzero"/></g></svg>