<svg xmlns="http://www.w3.org/2000/svg" xmlns:xlink="http://www.w3.org/1999/xlink" width="1000" zoomAndPan="magnify" viewBox="0 0 750 749.999995" height="1000" preserveAspectRatio="xMidYMid meet" version="1.0"><defs><clipPath id="2487cba0e4"><path d="M 45 0 L 705 0 C 716.933594 0 728.378906 4.742188 736.820312 13.179688 C 745.257812 21.621094 750 33.066406 750 45 L 750 705 C 750 716.933594 745.257812 728.378906 736.820312 736.820312 C 728.378906 745.257812 716.933594 750 705 750 L 45 750 C 20.148438 750 0 729.851562 0 705 L 0 45 C 0 20.148438 20.148438 0 45 0 Z M 45 0 " clip-rule="nonzero"/></clipPath><clipPath id="b8a5917f7f"><path d="M 0 0 L 750 0 L 750 750 L 0 750 Z M 0 0 " clip-rule="nonzero"/></clipPath><clipPath id="34ff3a6a50"><path d="M 45 0 L 705 0 C 716.933594 0 728.378906 4.742188 736.820312 13.179688 C 745.257812 21.621094 750 33.066406 750 45 L 750 705 C 750 716.933594 745.257812 728.378906 736.820312 736.820312 C 728.378906 745.257812 716.933594 750 705 750 L 45 750 C 20.148438 750 0 729.851562 0 705 L 0 45 C 0 20.148438 20.148438 0 45 0 Z M 45 0 " clip-rule="nonzero"/></clipPath><clipPath id="32f64658ee"><rect x="0" width="750" y="0" height="750"/></clipPath><clipPath id="9749616f98"><path d="M 375 375 L 706.351562 375 L 706.351562 706.351562 L 375 706.351562 Z M 375 375 " clip-rule="nonzero"/></clipPath><clipPath id="a2277701dc"><path d="M 397.5 375 L 683.851562 375 C 689.820312 375 695.542969 377.371094 699.761719 381.589844 C 703.980469 385.808594 706.351562 391.53125 706.351562 397.5 L 706.351562 683.851562 C 706.351562 689.820312 703.980469 695.542969 699.761719 699.761719 C 695.542969 703.980469 689.820312 706.351562 683.851562 706.351562 L 397.5 706.351562 C 385.074219 706.351562 375 696.277344 375 683.851562 L 375 397.5 C 375 385.074219 385.074219 375 397.5 375 Z M 397.5 375 " clip-rule="nonzero"/></clipPath><clipPath id="3a1c6a00cd"><path d="M 0 0 L 331.351562 0 L 331.351562 331.351562 L 0 331.351562 Z M 0 0 " clip-rule="nonzero"/></clipPath><clipPath id="07afe03952"><path d="M 22.5 0 L 308.851562 0 C 314.820312 0 320.542969 2.371094 324.761719 6.589844 C 328.980469 10.808594 331.351562 16.53125 331.351562 22.5 L 331.351562 308.851562 C 331.351562 314.820312 328.980469 320.542969 324.761719 324.761719 C 320.542969 328.980469 314.820312 331.351562 308.851562 331.351562 L 22.5 331.351562 C 10.074219 331.351562 0 321.277344 0 308.851562 L 0 22.5 C 0 10.074219 10.074219 0 22.5 0 Z M 22.5 0 " clip-rule="nonzero"/></clipPath><clipPath id="9b27a6b77b"><rect x="0" width="332" y="0" height="332"/></clipPath><clipPath id="e8d374b0c0"><path d="M 375 375 L 706.351562 375 L 706.351562 442.847656 L 375 442.847656 Z M 375 375 " clip-rule="nonzero"/></clipPath><clipPath id="67e9faba16"><path d="M 0 0 L 331.351562 0 L 331.351562 67.847656 L 0 67.847656 Z M 0 0 " clip-rule="nonzero"/></clipPath><clipPath id="badc9b951f"><rect x="0" width="332" y="0" height="68"/></clipPath><clipPath id="5e0ff51716"><path d="M 375.003906 374.992188 L 442.851562 374.992188 L 442.851562 706.34375 L 375.003906 706.34375 Z M 375.003906 374.992188 " clip-rule="nonzero"/></clipPath><clipPath id="0f8eda34fb"><path d="M 0.00390625 1 L 67.851562 1 L 67.851562 332.34375 L 0.00390625 332.34375 Z M 0.00390625 1 " clip-rule="nonzero"/></clipPath><clipPath id="6732a1d3b0"><rect x="0" width="68" y="0" height="333"/></clipPath><clipPath id="d5fc4fa148"><path d="M 43.648438 375 L 375 375 L 375 706.351562 L 43.648438 706.351562 Z M 43.648438 375 " clip-rule="nonzero"/></clipPath><clipPath id="c56a798950"><path d="M 66.148438 375 L 352.5 375 C 358.46875 375 364.191406 377.371094 368.410156 381.589844 C 372.628906 385.808594 375 391.53125 375 397.5 L 375 683.851562 C 375 689.820312 372.628906 695.542969 368.410156 699.761719 C 364.191406 703.980469 358.46875 706.351562 352.5 706.351562 L 66.148438 706.351562 C 53.722656 706.351562 43.648438 696.277344 43.648438 683.851562 L 43.648438 397.5 C 43.648438 385.074219 53.722656 375 66.148438 375 Z M 66.148438 375 " clip-rule="nonzero"/></clipPath><clipPath id="b8c94a27dd"><path d="M 0.648438 0 L 332 0 L 332 331.351562 L 0.648438 331.351562 Z M 0.648438 0 " clip-rule="nonzero"/></clipPath><clipPath id="9169bb015d"><path d="M 23.148438 0 L 309.5 0 C 315.46875 0 321.191406 2.371094 325.410156 6.589844 C 329.628906 10.808594 332 16.53125 332 22.5 L 332 308.851562 C 332 314.820312 329.628906 320.542969 325.410156 324.761719 C 321.191406 328.980469 315.46875 331.351562 309.5 331.351562 L 23.148438 331.351562 C 10.722656 331.351562 0.648438 321.277344 0.648438 308.851562 L 0.648438 22.5 C 0.648438 10.074219 10.722656 0 23.148438 0 Z M 23.148438 0 " clip-rule="nonzero"/></clipPath><clipPath id="da702780fc"><rect x="0" width="332" y="0" height="332"/></clipPath><clipPath id="81f959418f"><path d="M 43.648438 375 L 375 375 L 375 433.71875 L 43.648438 433.71875 Z M 43.648438 375 " clip-rule="nonzero"/></clipPath><clipPath id="f0ef6e2e99"><path d="M 0.648438 0 L 332 0 L 332 58.71875 L 0.648438 58.71875 Z M 0.648438 0 " clip-rule="nonzero"/></clipPath><clipPath id="c75742e9a6"><rect x="0" width="332" y="0" height="59"/></clipPath><clipPath id="598476e08f"><path d="M 316.285156 374.996094 L 375.003906 374.996094 L 375.003906 706.34375 L 316.285156 706.34375 Z M 316.285156 374.996094 " clip-rule="nonzero"/></clipPath><clipPath id="c640d6c4f4"><path d="M 0.285156 0.996094 L 59.003906 0.996094 L 59.003906 332.34375 L 0.285156 332.34375 Z M 0.285156 0.996094 " clip-rule="nonzero"/></clipPath><clipPath id="aec9881488"><rect x="0" width="60" y="0" height="333"/></clipPath><clipPath id="1d9ca79277"><path d="M 43.648438 43.648438 L 375 43.648438 L 375 375 L 43.648438 375 Z M 43.648438 43.648438 " clip-rule="nonzero"/></clipPath><clipPath id="a2362e2301"><path d="M 66.148438 43.648438 L 352.5 43.648438 C 358.46875 43.648438 364.191406 46.019531 368.410156 50.238281 C 372.628906 54.457031 375 60.179688 375 66.148438 L 375 352.5 C 375 358.46875 372.628906 364.191406 368.410156 368.410156 C 364.191406 372.628906 358.46875 375 352.5 375 L 66.148438 375 C 53.722656 375 43.648438 364.925781 43.648438 352.5 L 43.648438 66.148438 C 43.648438 53.722656 53.722656 43.648438 66.148438 43.648438 Z M 66.148438 43.648438 " clip-rule="nonzero"/></clipPath><clipPath id="7b75bf999f"><path d="M 0.648438 0.648438 L 332 0.648438 L 332 332 L 0.648438 332 Z M 0.648438 0.648438 " clip-rule="nonzero"/></clipPath><clipPath id="2557177341"><path d="M 23.148438 0.648438 L 309.5 0.648438 C 315.46875 0.648438 321.191406 3.019531 325.410156 7.238281 C 329.628906 11.457031 332 17.179688 332 23.148438 L 332 309.5 C 332 315.46875 329.628906 321.191406 325.410156 325.410156 C 321.191406 329.628906 315.46875 332 309.5 332 L 23.148438 332 C 10.722656 332 0.648438 321.925781 0.648438 309.5 L 0.648438 23.148438 C 0.648438 10.722656 10.722656 0.648438 23.148438 0.648438 Z M 23.148438 0.648438 " clip-rule="nonzero"/></clipPath><clipPath id="d6b78e0f91"><rect x="0" width="332" y="0" height="332"/></clipPath><clipPath id="ce73df09cc"><path d="M 43.648438 319.488281 L 375 319.488281 L 375 375 L 43.648438 375 Z M 43.648438 319.488281 " clip-rule="nonzero"/></clipPath><clipPath id="af10326e74"><path d="M 0.648438 0.488281 L 332 0.488281 L 332 56 L 0.648438 56 Z M 0.648438 0.488281 " clip-rule="nonzero"/></clipPath><clipPath id="6e71269798"><rect x="0" width="332" y="0" height="56"/></clipPath><clipPath id="8c184c26f3"><path d="M 319.492188 43.640625 L 375.003906 43.640625 L 375.003906 374.992188 L 319.492188 374.992188 Z M 319.492188 43.640625 " clip-rule="nonzero"/></clipPath><clipPath id="e221c0b54a"><path d="M 0.492188 0.640625 L 56.003906 0.640625 L 56.003906 331.992188 L 0.492188 331.992188 Z M 0.492188 0.640625 " clip-rule="nonzero"/></clipPath><clipPath id="d5e7ca3adc"><rect x="0" width="57" y="0" height="332"/></clipPath><clipPath id="f3d43130e1"><path d="M 375 43.648438 L 706.351562 43.648438 L 706.351562 375 L 375 375 Z M 375 43.648438 " clip-rule="nonzero"/></clipPath><clipPath id="b3a62774f3"><path d="M 397.5 43.648438 L 683.851562 43.648438 C 689.820312 43.648438 695.542969 46.019531 699.761719 50.238281 C 703.980469 54.457031 706.351562 60.179688 706.351562 66.148438 L 706.351562 352.5 C 706.351562 358.46875 703.980469 364.191406 699.761719 368.410156 C 695.542969 372.628906 689.820312 375 683.851562 375 L 397.5 375 C 385.074219 375 375 364.925781 375 352.5 L 375 66.148438 C 375 53.722656 385.074219 43.648438 397.5 43.648438 Z M 397.5 43.648438 " clip-rule="nonzero"/></clipPath><clipPath id="0e8aa2ffb2"><path d="M 0 0.648438 L 331.351562 0.648438 L 331.351562 332 L 0 332 Z M 0 0.648438 " clip-rule="nonzero"/></clipPath><clipPath id="c3d05c7b6a"><path d="M 22.5 0.648438 L 308.851562 0.648438 C 314.820312 0.648438 320.542969 3.019531 324.761719 7.238281 C 328.980469 11.457031 331.351562 17.179688 331.351562 23.148438 L 331.351562 309.5 C 331.351562 315.46875 328.980469 321.191406 324.761719 325.410156 C 320.542969 329.628906 314.820312 332 308.851562 332 L 22.5 332 C 10.074219 332 0 321.925781 0 309.5 L 0 23.148438 C 0 10.722656 10.074219 0.648438 22.5 0.648438 Z M 22.5 0.648438 " clip-rule="nonzero"/></clipPath><clipPath id="071c87614f"><rect x="0" width="332" y="0" height="332"/></clipPath><clipPath id="4621e7dacf"><path d="M 375 43.648438 L 420.886719 43.648438 L 420.886719 375 L 375 375 Z M 375 43.648438 " clip-rule="nonzero"/></clipPath><clipPath id="043bfcd20e"><path d="M 0 0.648438 L 45.886719 0.648438 L 45.886719 332 L 0 332 Z M 0 0.648438 " clip-rule="nonzero"/></clipPath><clipPath id="049016a458"><rect x="0" width="46" y="0" height="332"/></clipPath><clipPath id="a55ae6519f"><path d="M 374.992188 329.113281 L 706.34375 329.113281 L 706.34375 375.003906 L 374.992188 375.003906 Z M 374.992188 329.113281 " clip-rule="nonzero"/></clipPath><clipPath id="67376768c8"><path d="M 0.992188 0.113281 L 332.34375 0.113281 L 332.34375 46.003906 L 0.992188 46.003906 Z M 0.992188 0.113281 " clip-rule="nonzero"/></clipPath><clipPath id="8dcdd3d38a"><rect x="0" width="333" y="0" height="47"/></clipPath><clipPath id="f6a0a2ba02"><path d="M 87.722656 87.722656 L 662.222656 87.722656 L 662.222656 662.222656 L 87.722656 662.222656 Z M 87.722656 87.722656 " clip-rule="nonzero"/></clipPath></defs><g clip-path="url(#2487cba0e4)"><g transform="matrix(1, 0, 0, 1, 0, -0.000000000000042435)"><g clip-path="url(#32f64658ee)"><g clip-path="url(#b8a5917f7f)"><g clip-path="url(#34ff3a6a50)"><rect x="-165" width="1080" fill="#ffffff" height="1079.999992" y="-164.999999" fill-opacity="1"/></g></g></g></g></g><g clip-path="url(#9749616f98)"><g clip-path="url(#a2277701dc)"><g transform="matrix(1, 0, 0, 1, 375, 375)"><g clip-path="url(#9b27a6b77b)"><g clip-path="url(#3a1c6a00cd)"><g clip-path="url(#07afe03952)"><path fill="#295c28" d="M 0 0 L 331.351562 0 L 331.351562 331.351562 L 0 331.351562 Z M 0 0 " fill-opacity="1" fill-rule="nonzero"/></g></g></g></g></g></g><g clip-path="url(#e8d374b0c0)"><g transform="matrix(1, 0, 0, 1, 375, 375)"><g clip-path="url(#badc9b951f)"><g clip-path="url(#67e9faba16)"><path fill="#295c28" d="M 0 0 L 331.292969 0 L 331.292969 67.847656 L 0 67.847656 Z M 0 0 " fill-opacity="1" fill-rule="nonzero"/></g></g></g></g><g clip-path="url(#5e0ff51716)"><g transform="matrix(1, 0, 0, 1, 375, 374)"><g clip-path="url(#6732a1d3b0)"><g clip-path="url(#0f8eda34fb)"><path fill="#295c28" d="M 0.00390625 332.34375 L 0.00390625 1.054688 L 67.851562 1.054688 L 67.851562 332.34375 Z M 0.00390625 332.34375 " fill-opacity="1" fill-rule="nonzero"/></g></g></g></g><g clip-path="url(#d5fc4fa148)"><g clip-path="url(#c56a798950)"><g transform="matrix(1, 0, 0, 1, 43, 375)"><g clip-path="url(#da702780fc)"><g clip-path="url(#b8c94a27dd)"><g clip-path="url(#9169bb015d)"><path fill="#439a41" d="M 0.648438 0 L 332 0 L 332 331.351562 L 0.648438 331.351562 Z M 0.648438 0 " fill-opacity="1" fill-rule="nonzero"/></g></g></g></g></g></g><g clip-path="url(#81f959418f)"><g transform="matrix(1, 0, 0, 1, 43, 375)"><g clip-path="url(#c75742e9a6)"><g clip-path="url(#f0ef6e2e99)"><path fill="#439a41" d="M 0.648438 0 L 332.085938 0 L 332.085938 58.71875 L 0.648438 58.71875 Z M 0.648438 0 " fill-opacity="1" fill-rule="nonzero"/></g></g></g></g><g clip-path="url(#598476e08f)"><g transform="matrix(1, 0, 0, 1, 316, 374)"><g clip-path="url(#aec9881488)"><g clip-path="url(#c640d6c4f4)"><path fill="#439a41" d="M 0.285156 332.34375 L 0.285156 0.90625 L 59.003906 0.90625 L 59.003906 332.34375 Z M 0.285156 332.34375 " fill-opacity="1" fill-rule="nonzero"/></g></g></g></g><g clip-path="url(#1d9ca79277)"><g clip-path="url(#a2362e2301)"><g transform="matrix(1, 0, 0, 1, 43, 43)"><g clip-path="url(#d6b78e0f91)"><g clip-path="url(#7b75bf999f)"><g clip-path="url(#2557177341)"><path fill="#a5ffa3" d="M 0.648438 0.648438 L 332 0.648438 L 332 332 L 0.648438 332 Z M 0.648438 0.648438 " fill-opacity="1" fill-rule="nonzero"/></g></g></g></g></g></g><g clip-path="url(#ce73df09cc)"><g transform="matrix(1, 0, 0, 1, 43, 319)"><g clip-path="url(#6e71269798)"><g clip-path="url(#af10326e74)"><path fill="#a5ffa3" d="M 0.648438 0.488281 L 331.980469 0.488281 L 331.980469 56 L 0.648438 56 Z M 0.648438 0.488281 " fill-opacity="1" fill-rule="nonzero"/></g></g></g></g><g clip-path="url(#8c184c26f3)"><g transform="matrix(1, 0, 0, 1, 319, 43)"><g clip-path="url(#d5e7ca3adc)"><g clip-path="url(#e221c0b54a)"><path fill="#a5ffa3" d="M 0.492188 331.992188 L 0.492188 0.660156 L 56.003906 0.660156 L 56.003906 331.992188 Z M 0.492188 331.992188 " fill-opacity="1" fill-rule="nonzero"/></g></g></g></g><g clip-path="url(#f3d43130e1)"><g clip-path="url(#b3a62774f3)"><g transform="matrix(1, 0, 0, 1, 375, 43)"><g clip-path="url(#071c87614f)"><g clip-path="url(#0e8aa2ffb2)"><g clip-path="url(#c3d05c7b6a)"><path fill="#62e060" d="M 0 0.648438 L 331.351562 0.648438 L 331.351562 332 L 0 332 Z M 0 0.648438 " fill-opacity="1" fill-rule="nonzero"/></g></g></g></g></g></g><g clip-path="url(#4621e7dacf)"><g transform="matrix(1, 0, 0, 1, 375, 43)"><g clip-path="url(#049016a458)"><g clip-path="url(#043bfcd20e)"><path fill="#62e060" d="M 0 0.648438 L 45.886719 0.648438 L 45.886719 332.085938 L 0 332.085938 Z M 0 0.648438 " fill-opacity="1" fill-rule="nonzero"/></g></g></g></g><g clip-path="url(#a55ae6519f)"><g transform="matrix(1, 0, 0, 1, 374, 329)"><g clip-path="url(#8dcdd3d38a)"><g clip-path="url(#67376768c8)"><path fill="#62e060" d="M 332.34375 0.113281 L 332.34375 46.003906 L 0.90625 46.003906 L 0.90625 0.113281 Z M 332.34375 0.113281 " fill-opacity="1" fill-rule="nonzero"/></g></g></g></g><g clip-path="url(#f6a0a2ba02)"><path fill="#ffffff" d="M 614.386719 87.722656 L 135.605469 87.722656 C 109.277344 87.722656 87.722656 109.277344 87.722656 135.605469 L 87.722656 614.394531 C 87.722656 640.71875 109.277344 662.269531 135.605469 662.269531 L 614.394531 662.269531 C 640.71875 662.269531 662.269531 640.71875 662.269531 614.386719 L 662.269531 135.605469 C 662.269531 109.277344 640.71875 87.722656 614.386719 87.722656 Z M 207.421875 279.242188 C 207.421875 239.589844 239.589844 207.421875 279.242188 207.421875 C 318.890625 207.421875 351.058594 239.589844 351.058594 279.242188 L 303.179688 279.242188 C 303.179688 266.011719 292.457031 255.304688 279.242188 255.304688 C 266.027344 255.304688 255.304688 266.011719 255.304688 279.242188 L 255.304688 374.976562 C 255.304688 388.183594 266.019531 398.910156 279.242188 398.910156 C 292.460938 398.910156 303.179688 388.183594 303.179688 374.976562 L 351.058594 374.976562 C 351.058594 414.648438 318.890625 446.792969 279.242188 446.792969 C 239.589844 446.792969 207.421875 414.640625 207.421875 374.976562 Z M 542.570312 542.570312 L 207.421875 542.570312 L 207.421875 494.695312 L 542.578125 494.695312 L 542.578125 542.570312 Z M 482.722656 446.816406 L 434.84375 446.816406 L 374.996094 207.421875 L 424.351562 207.421875 L 458.785156 345.171875 L 493.222656 207.421875 L 542.570312 207.421875 Z M 482.722656 446.816406 " fill-opacity="1" fill-rule="nonzero"/></g></svg>