<svg xmlns="http://www.w3.org/2000/svg" xmlns:xlink="http://www.w3.org/1999/xlink" width="1000" zoomAndPan="magnify" viewBox="0 0 750 456.749983" height="609" preserveAspectRatio="xMidYMid meet" version="1.0"><defs><g/><clipPath id="7fc7b83a0f"><path d="M 0.207031 0 L 376.792969 0 L 376.792969 377.042969 L 0.207031 377.042969 Z M 0.207031 0 " clip-rule="nonzero"/></clipPath><clipPath id="4ab03b5b46"><path d="M 22.371094 0 L 354.167969 0 C 360.167969 0 365.921875 2.382812 370.164062 6.625 C 374.40625 10.871094 376.792969 16.625 376.792969 22.621094 L 376.792969 354.421875 C 376.792969 360.421875 374.40625 366.175781 370.164062 370.417969 C 365.921875 374.660156 360.167969 377.042969 354.167969 377.042969 L 22.371094 377.042969 C 9.875 377.042969 -0.253906 366.914062 -0.253906 354.421875 L -0.253906 22.621094 C -0.253906 10.128906 9.875 0 22.371094 0 Z M 22.371094 0 " clip-rule="nonzero"/></clipPath><clipPath id="8a858951fe"><path d="M 22.371094 0 L 354.167969 0 C 360.167969 0 365.921875 2.382812 370.164062 6.625 C 374.40625 10.871094 376.792969 16.625 376.792969 22.621094 L 376.792969 354.421875 C 376.792969 360.421875 374.40625 366.175781 370.164062 370.417969 C 365.921875 374.660156 360.167969 377.042969 354.167969 377.042969 L 22.371094 377.042969 C 9.875 377.042969 -0.253906 366.914062 -0.253906 354.421875 L -0.253906 22.621094 C -0.253906 10.128906 9.875 0 22.371094 0 Z M 22.371094 0 " clip-rule="nonzero"/></clipPath><clipPath id="65718172b6"><path d="M 188.269531 21.941406 L 354.847656 21.941406 L 354.847656 188.523438 L 188.269531 188.523438 Z M 188.269531 21.941406 " clip-rule="nonzero"/></clipPath><clipPath id="7621ebd1d8"><path d="M 199.582031 21.941406 L 343.535156 21.941406 C 346.539062 21.941406 349.414062 23.136719 351.535156 25.257812 C 353.65625 27.375 354.847656 30.253906 354.847656 33.253906 L 354.847656 177.210938 C 354.847656 180.210938 353.65625 183.089844 351.535156 185.207031 C 349.414062 187.328125 346.539062 188.523438 343.535156 188.523438 L 199.582031 188.523438 C 193.332031 188.523438 188.269531 183.457031 188.269531 177.210938 L 188.269531 33.253906 C 188.269531 27.007812 193.332031 21.941406 199.582031 21.941406 Z M 199.582031 21.941406 " clip-rule="nonzero"/></clipPath><clipPath id="8dc876a023"><path d="M 199.582031 21.941406 L 343.535156 21.941406 C 346.539062 21.941406 349.414062 23.136719 351.535156 25.257812 C 353.65625 27.375 354.847656 30.253906 354.847656 33.253906 L 354.847656 177.210938 C 354.847656 180.210938 353.65625 183.089844 351.535156 185.207031 C 349.414062 187.328125 346.539062 188.523438 343.535156 188.523438 L 199.582031 188.523438 C 193.332031 188.523438 188.269531 183.457031 188.269531 177.210938 L 188.269531 33.253906 C 188.269531 27.007812 193.332031 21.941406 199.582031 21.941406 Z M 199.582031 21.941406 " clip-rule="nonzero"/></clipPath><clipPath id="75787c95f9"><path d="M 188.269531 188.523438 L 354.847656 188.523438 L 354.847656 355.101562 L 188.269531 355.101562 Z M 188.269531 188.523438 " clip-rule="nonzero"/></clipPath><clipPath id="45d76fa291"><path d="M 199.582031 188.523438 L 343.535156 188.523438 C 346.539062 188.523438 349.414062 189.714844 351.535156 191.835938 C 353.65625 193.957031 354.847656 196.832031 354.847656 199.832031 L 354.847656 343.789062 C 354.847656 346.789062 353.65625 349.667969 351.535156 351.789062 C 349.414062 353.910156 346.539062 355.101562 343.535156 355.101562 L 199.582031 355.101562 C 193.332031 355.101562 188.269531 350.035156 188.269531 343.789062 L 188.269531 199.832031 C 188.269531 193.585938 193.332031 188.523438 199.582031 188.523438 Z M 199.582031 188.523438 " clip-rule="nonzero"/></clipPath><clipPath id="22663e679c"><path d="M 199.582031 188.523438 L 343.535156 188.523438 C 346.539062 188.523438 349.414062 189.714844 351.535156 191.835938 C 353.65625 193.957031 354.847656 196.832031 354.847656 199.832031 L 354.847656 343.789062 C 354.847656 346.789062 353.65625 349.667969 351.535156 351.789062 C 349.414062 353.910156 346.539062 355.101562 343.535156 355.101562 L 199.582031 355.101562 C 193.332031 355.101562 188.269531 350.035156 188.269531 343.789062 L 188.269531 199.832031 C 188.269531 193.585938 193.332031 188.523438 199.582031 188.523438 Z M 199.582031 188.523438 " clip-rule="nonzero"/></clipPath><clipPath id="044186c10b"><path d="M 188.269531 188.523438 L 354.847656 188.523438 L 354.847656 222.628906 L 188.269531 222.628906 Z M 188.269531 188.523438 " clip-rule="nonzero"/></clipPath><clipPath id="09f0bd93c0"><path d="M 188.269531 188.523438 L 222.378906 188.523438 L 222.378906 355.097656 L 188.269531 355.097656 Z M 188.269531 188.523438 " clip-rule="nonzero"/></clipPath><clipPath id="24531d8d9b"><path d="M 21.691406 188.523438 L 188.269531 188.523438 L 188.269531 355.101562 L 21.691406 355.101562 Z M 21.691406 188.523438 " clip-rule="nonzero"/></clipPath><clipPath id="40ac613155"><path d="M 33.003906 188.523438 L 176.957031 188.523438 C 179.957031 188.523438 182.835938 189.714844 184.957031 191.835938 C 187.078125 193.957031 188.269531 196.832031 188.269531 199.832031 L 188.269531 343.789062 C 188.269531 346.789062 187.078125 349.667969 184.957031 351.789062 C 182.835938 353.910156 179.957031 355.101562 176.957031 355.101562 L 33.003906 355.101562 C 26.753906 355.101562 21.691406 350.035156 21.691406 343.789062 L 21.691406 199.832031 C 21.691406 193.585938 26.753906 188.523438 33.003906 188.523438 Z M 33.003906 188.523438 " clip-rule="nonzero"/></clipPath><clipPath id="5c34265ca4"><path d="M 33.003906 188.523438 L 176.957031 188.523438 C 179.957031 188.523438 182.835938 189.714844 184.957031 191.835938 C 187.078125 193.957031 188.269531 196.832031 188.269531 199.832031 L 188.269531 343.789062 C 188.269531 346.789062 187.078125 349.667969 184.957031 351.789062 C 182.835938 353.910156 179.957031 355.101562 176.957031 355.101562 L 33.003906 355.101562 C 26.753906 355.101562 21.691406 350.035156 21.691406 343.789062 L 21.691406 199.832031 C 21.691406 193.585938 26.753906 188.523438 33.003906 188.523438 Z M 33.003906 188.523438 " clip-rule="nonzero"/></clipPath><clipPath id="c632de43d3"><path d="M 21.691406 188.523438 L 188.269531 188.523438 L 188.269531 218.042969 L 21.691406 218.042969 Z M 21.691406 188.523438 " clip-rule="nonzero"/></clipPath><clipPath id="6716b8a9a3"><path d="M 158.75 188.519531 L 188.269531 188.519531 L 188.269531 355.097656 L 158.75 355.097656 Z M 158.75 188.519531 " clip-rule="nonzero"/></clipPath><clipPath id="fe8ac671ad"><path d="M 21.691406 21.941406 L 188.269531 21.941406 L 188.269531 188.523438 L 21.691406 188.523438 Z M 21.691406 21.941406 " clip-rule="nonzero"/></clipPath><clipPath id="41751d0dc5"><path d="M 33.003906 21.941406 L 176.957031 21.941406 C 179.957031 21.941406 182.835938 23.136719 184.957031 25.257812 C 187.078125 27.375 188.269531 30.253906 188.269531 33.253906 L 188.269531 177.210938 C 188.269531 180.210938 187.078125 183.089844 184.957031 185.207031 C 182.835938 187.328125 179.957031 188.523438 176.957031 188.523438 L 33.003906 188.523438 C 26.753906 188.523438 21.691406 183.457031 21.691406 177.210938 L 21.691406 33.253906 C 21.691406 27.007812 26.753906 21.941406 33.003906 21.941406 Z M 33.003906 21.941406 " clip-rule="nonzero"/></clipPath><clipPath id="487521949d"><path d="M 33.003906 21.941406 L 176.957031 21.941406 C 179.957031 21.941406 182.835938 23.136719 184.957031 25.257812 C 187.078125 27.375 188.269531 30.253906 188.269531 33.253906 L 188.269531 177.210938 C 188.269531 180.210938 187.078125 183.089844 184.957031 185.207031 C 182.835938 187.328125 179.957031 188.523438 176.957031 188.523438 L 33.003906 188.523438 C 26.753906 188.523438 21.691406 183.457031 21.691406 177.210938 L 21.691406 33.253906 C 21.691406 27.007812 26.753906 21.941406 33.003906 21.941406 Z M 33.003906 21.941406 " clip-rule="nonzero"/></clipPath><clipPath id="c7a9a62ef8"><path d="M 21.691406 160.613281 L 188.269531 160.613281 L 188.269531 188.523438 L 21.691406 188.523438 Z M 21.691406 160.613281 " clip-rule="nonzero"/></clipPath><clipPath id="902cb8e367"><path d="M 160.363281 21.9375 L 188.269531 21.9375 L 188.269531 188.519531 L 160.363281 188.519531 Z M 160.363281 21.9375 " clip-rule="nonzero"/></clipPath><clipPath id="e709c4e12d"><path d="M 188.269531 21.941406 L 211.335938 21.941406 L 211.335938 188.523438 L 188.269531 188.523438 Z M 188.269531 21.941406 " clip-rule="nonzero"/></clipPath><clipPath id="13a1fde012"><path d="M 188.265625 165.453125 L 354.84375 165.453125 L 354.84375 188.523438 L 188.265625 188.523438 Z M 188.265625 165.453125 " clip-rule="nonzero"/></clipPath><clipPath id="6579d7e333"><path d="M 43.847656 44.101562 L 332.664062 44.101562 L 332.664062 332.914062 L 43.847656 332.914062 Z M 43.847656 44.101562 " clip-rule="nonzero"/></clipPath><clipPath id="c44381154c"><path d="M 0.207031 419.714844 L 749.792969 419.714844 L 749.792969 456.5 L 0.207031 456.5 Z M 0.207031 419.714844 " clip-rule="nonzero"/></clipPath><clipPath id="990500fd38"><path d="M 0.207031 0.714844 L 749.792969 0.714844 L 749.792969 37.5 L 0.207031 37.5 Z M 0.207031 0.714844 " clip-rule="nonzero"/></clipPath><clipPath id="dc2101fbaf"><rect x="0" width="750" y="0" height="38"/></clipPath><clipPath id="3365f4c672"><path d="M 410 0 L 749.792969 0 L 749.792969 379 L 410 379 Z M 410 0 " clip-rule="nonzero"/></clipPath><clipPath id="507603d160"><rect x="0" width="340" y="0" height="379"/></clipPath></defs><g clip-path="url(#7fc7b83a0f)"><g clip-path="url(#4ab03b5b46)"><g clip-path="url(#8a858951fe)"><path fill="#000000" d="M -83.203125 -82.949219 L 459.742188 -82.949219 L 459.742188 459.992188 L -83.203125 459.992188 Z M -83.203125 -82.949219 " fill-opacity="1" fill-rule="nonzero"/></g></g></g><g clip-path="url(#65718172b6)"><g clip-path="url(#7621ebd1d8)"><g clip-path="url(#8dc876a023)"><path fill="#62e060" d="M 188.269531 21.941406 L 354.847656 21.941406 L 354.847656 188.523438 L 188.269531 188.523438 Z M 188.269531 21.941406 " fill-opacity="1" fill-rule="nonzero"/></g></g></g><g clip-path="url(#75787c95f9)"><g clip-path="url(#45d76fa291)"><g clip-path="url(#22663e679c)"><path fill="#295c28" d="M 188.269531 188.523438 L 354.847656 188.523438 L 354.847656 355.101562 L 188.269531 355.101562 Z M 188.269531 188.523438 " fill-opacity="1" fill-rule="nonzero"/></g></g></g><g clip-path="url(#044186c10b)"><path fill="#295c28" d="M 188.269531 188.523438 L 354.820312 188.523438 L 354.820312 222.628906 L 188.269531 222.628906 Z M 188.269531 188.523438 " fill-opacity="1" fill-rule="nonzero"/></g><g clip-path="url(#09f0bd93c0)"><path fill="#295c28" d="M 188.269531 188.550781 L 222.378906 188.550781 L 222.378906 355.097656 L 188.269531 355.097656 Z M 188.269531 188.550781 " fill-opacity="1" fill-rule="nonzero"/></g><g clip-path="url(#24531d8d9b)"><g clip-path="url(#40ac613155)"><g clip-path="url(#5c34265ca4)"><path fill="#439a41" d="M 21.691406 188.523438 L 188.269531 188.523438 L 188.269531 355.101562 L 21.691406 355.101562 Z M 21.691406 188.523438 " fill-opacity="1" fill-rule="nonzero"/></g></g></g><g clip-path="url(#c632de43d3)"><path fill="#439a41" d="M 21.691406 188.523438 L 188.3125 188.523438 L 188.3125 218.042969 L 21.691406 218.042969 Z M 21.691406 188.523438 " fill-opacity="1" fill-rule="nonzero"/></g><g clip-path="url(#6716b8a9a3)"><path fill="#439a41" d="M 158.75 188.476562 L 188.269531 188.476562 L 188.269531 355.097656 L 158.75 355.097656 Z M 158.75 188.476562 " fill-opacity="1" fill-rule="nonzero"/></g><g clip-path="url(#fe8ac671ad)"><g clip-path="url(#41751d0dc5)"><g clip-path="url(#487521949d)"><path fill="#a5ffa3" d="M 21.691406 21.941406 L 188.269531 21.941406 L 188.269531 188.523438 L 21.691406 188.523438 Z M 21.691406 21.941406 " fill-opacity="1" fill-rule="nonzero"/></g></g></g><g clip-path="url(#c7a9a62ef8)"><path fill="#a5ffa3" d="M 21.691406 160.613281 L 188.257812 160.613281 L 188.257812 188.523438 L 21.691406 188.523438 Z M 21.691406 160.613281 " fill-opacity="1" fill-rule="nonzero"/></g><g clip-path="url(#902cb8e367)"><path fill="#a5ffa3" d="M 160.363281 21.949219 L 188.269531 21.949219 L 188.269531 188.519531 L 160.363281 188.519531 Z M 160.363281 21.949219 " fill-opacity="1" fill-rule="nonzero"/></g><g clip-path="url(#e709c4e12d)"><path fill="#62e060" d="M 188.269531 21.941406 L 211.335938 21.941406 L 211.335938 188.566406 L 188.269531 188.566406 Z M 188.269531 21.941406 " fill-opacity="1" fill-rule="nonzero"/></g><g clip-path="url(#13a1fde012)"><path fill="#62e060" d="M 188.222656 165.453125 L 354.84375 165.453125 L 354.84375 188.523438 L 188.222656 188.523438 Z M 188.222656 165.453125 " fill-opacity="1" fill-rule="nonzero"/></g><g clip-path="url(#6579d7e333)"><path fill="#000000" d="M 308.59375 44.101562 L 67.917969 44.101562 C 54.683594 44.101562 43.847656 54.933594 43.847656 68.171875 L 43.847656 308.851562 C 43.847656 322.082031 54.683594 332.914062 67.917969 332.914062 L 308.597656 332.914062 C 321.828125 332.914062 332.664062 322.082031 332.664062 308.847656 L 332.664062 68.171875 C 332.664062 54.933594 321.828125 44.101562 308.59375 44.101562 Z M 104.019531 140.375 C 104.019531 120.441406 120.1875 104.273438 140.121094 104.273438 C 160.054688 104.273438 176.222656 120.441406 176.222656 140.375 L 152.152344 140.375 C 152.152344 133.722656 146.761719 128.339844 140.121094 128.339844 C 133.476562 128.339844 128.085938 133.722656 128.085938 140.375 L 128.085938 188.5 C 128.085938 195.136719 133.472656 200.53125 140.121094 200.53125 C 146.765625 200.53125 152.152344 195.136719 152.152344 188.5 L 176.222656 188.5 C 176.222656 208.441406 160.054688 224.601562 140.121094 224.601562 C 120.1875 224.601562 104.019531 208.4375 104.019531 188.5 Z M 272.492188 272.742188 L 104.019531 272.742188 L 104.019531 248.679688 L 272.496094 248.679688 L 272.496094 272.742188 Z M 242.410156 224.609375 L 218.339844 224.609375 L 188.253906 104.273438 L 213.066406 104.273438 L 230.375 173.515625 L 247.6875 104.273438 L 272.492188 104.273438 Z M 242.410156 224.609375 " fill-opacity="1" fill-rule="nonzero"/></g><g clip-path="url(#c44381154c)"><g transform="matrix(1, 0, 0, 1, 0.000000000000000028, 419)"><g clip-path="url(#dc2101fbaf)"><g clip-path="url(#990500fd38)"><path fill="#000000" d="M -0.253906 0.714844 L 749.792969 0.714844 L 749.792969 37.5 L -0.253906 37.5 Z M -0.253906 0.714844 " fill-opacity="1" fill-rule="nonzero"/></g></g></g></g><g clip-path="url(#3365f4c672)"><g transform="matrix(1, 0, 0, 1, 410, 0)"><g clip-path="url(#507603d160)"><g fill="#000000" fill-opacity="1"><g transform="translate(42.49021, 178.03506)"><g><path d="M 128.515625 -89.203125 L 103.921875 -89.203125 C 103.222656 -93.234375 101.929688 -96.816406 100.046875 -99.953125 C 98.160156 -103.085938 95.816406 -105.75 93.015625 -107.9375 C 90.210938 -110.125 87.023438 -111.773438 83.453125 -112.890625 C 79.878906 -114.015625 76.03125 -114.578125 71.90625 -114.578125 C 64.59375 -114.578125 58.109375 -112.742188 52.453125 -109.078125 C 46.804688 -105.421875 42.378906 -100.078125 39.171875 -93.046875 C 35.972656 -86.015625 34.375 -77.4375 34.375 -67.3125 C 34.375 -57.007812 35.984375 -48.34375 39.203125 -41.3125 C 42.429688 -34.28125 46.859375 -28.976562 52.484375 -25.40625 C 58.117188 -21.832031 64.570312 -20.046875 71.84375 -20.046875 C 75.875 -20.046875 79.65625 -20.582031 83.1875 -21.65625 C 86.71875 -22.726562 89.894531 -24.316406 92.71875 -26.421875 C 95.539062 -28.523438 97.925781 -31.109375 99.875 -34.171875 C 101.832031 -37.242188 103.179688 -40.753906 103.921875 -44.703125 L 128.515625 -44.5625 C 127.585938 -38.164062 125.601562 -32.160156 122.5625 -26.546875 C 119.519531 -20.941406 115.539062 -16.003906 110.625 -11.734375 C 105.71875 -7.460938 99.976562 -4.128906 93.40625 -1.734375 C 86.832031 0.648438 79.535156 1.84375 71.515625 1.84375 C 59.679688 1.84375 49.117188 -0.894531 39.828125 -6.375 C 30.546875 -11.851562 23.226562 -19.765625 17.875 -30.109375 C 12.53125 -40.453125 9.859375 -52.851562 9.859375 -67.3125 C 9.859375 -81.820312 12.550781 -94.234375 17.9375 -104.546875 C 23.332031 -114.867188 30.675781 -122.769531 39.96875 -128.25 C 49.257812 -133.726562 59.773438 -136.46875 71.515625 -136.46875 C 79.015625 -136.46875 85.984375 -135.414062 92.421875 -133.3125 C 98.867188 -131.207031 104.609375 -128.128906 109.640625 -124.078125 C 114.679688 -120.023438 118.832031 -115.070312 122.09375 -109.21875 C 125.363281 -103.363281 127.503906 -96.691406 128.515625 -89.203125 Z M 128.515625 -89.203125 "/></g></g></g><g fill="#000000" fill-opacity="1"><g transform="translate(169.017067, 178.03506)"><g><path d="M 31.296875 -134.625 L 66.328125 -28.65625 L 67.703125 -28.65625 L 102.671875 -134.625 L 129.5 -134.625 L 82.03125 0 L 51.9375 0 L 4.53125 -134.625 Z M 31.296875 -134.625 "/></g></g></g><g fill="#000000" fill-opacity="1"><g transform="translate(0.370525, 333.275598)"><g><path d="M 13.28125 0 L 13.28125 -134.625 L 37.671875 -134.625 L 37.671875 -77.640625 L 100.046875 -77.640625 L 100.046875 -134.625 L 124.5 -134.625 L 124.5 0 L 100.046875 0 L 100.046875 -57.1875 L 37.671875 -57.1875 L 37.671875 0 Z M 13.28125 0 "/></g></g></g><g fill="#000000" fill-opacity="1"><g transform="translate(126.963105, 333.275598)"><g><path d="M 76.578125 -42.46875 L 76.578125 -100.96875 L 100.375 -100.96875 L 100.375 0 L 77.296875 0 L 77.296875 -17.953125 L 76.25 -17.953125 C 73.96875 -12.296875 70.226562 -7.671875 65.03125 -4.078125 C 59.84375 -0.484375 53.460938 1.3125 45.890625 1.3125 C 39.265625 1.3125 33.421875 -0.164062 28.359375 -3.125 C 23.296875 -6.082031 19.34375 -10.394531 16.5 -16.0625 C 13.65625 -21.738281 12.234375 -28.613281 12.234375 -36.6875 L 12.234375 -100.96875 L 36.015625 -100.96875 L 36.015625 -40.359375 C 36.015625 -33.960938 37.769531 -28.878906 41.28125 -25.109375 C 44.789062 -21.335938 49.390625 -19.453125 55.078125 -19.453125 C 58.585938 -19.453125 61.984375 -20.304688 65.265625 -22.015625 C 68.554688 -23.722656 71.265625 -26.273438 73.390625 -29.671875 C 75.515625 -33.078125 76.578125 -37.34375 76.578125 -42.46875 Z M 76.578125 -42.46875 "/></g></g></g><g fill="#000000" fill-opacity="1"><g transform="translate(228.447796, 333.275598)"><g><path d="M 13.28125 0 L 13.28125 -134.625 L 37.078125 -134.625 L 37.078125 -84.265625 L 38.0625 -84.265625 C 39.289062 -86.722656 41.019531 -89.34375 43.25 -92.125 C 45.488281 -94.90625 48.515625 -97.289062 52.328125 -99.28125 C 56.140625 -101.28125 61.003906 -102.28125 66.921875 -102.28125 C 74.722656 -102.28125 81.765625 -100.296875 88.046875 -96.328125 C 94.335938 -92.367188 99.332031 -86.519531 103.03125 -78.78125 C 106.738281 -71.050781 108.59375 -61.578125 108.59375 -50.359375 C 108.59375 -39.265625 106.773438 -29.835938 103.140625 -22.078125 C 99.503906 -14.328125 94.550781 -8.410156 88.28125 -4.328125 C 82.007812 -0.253906 74.910156 1.78125 66.984375 1.78125 C 61.203125 1.78125 56.40625 0.816406 52.59375 -1.109375 C 48.78125 -3.046875 45.722656 -5.382812 43.421875 -8.125 C 41.117188 -10.863281 39.332031 -13.457031 38.0625 -15.90625 L 36.6875 -15.90625 L 36.6875 0 Z M 36.609375 -50.484375 C 36.609375 -43.953125 37.539062 -38.234375 39.40625 -33.328125 C 41.269531 -28.421875 43.960938 -24.597656 47.484375 -21.859375 C 51.015625 -19.117188 55.300781 -17.75 60.34375 -17.75 C 65.601562 -17.75 70.003906 -19.160156 73.546875 -21.984375 C 77.097656 -24.816406 79.785156 -28.695312 81.609375 -33.625 C 83.429688 -38.550781 84.34375 -44.171875 84.34375 -50.484375 C 84.34375 -56.753906 83.441406 -62.320312 81.640625 -67.1875 C 79.847656 -72.050781 77.175781 -75.863281 73.625 -78.625 C 70.070312 -81.382812 65.644531 -82.765625 60.34375 -82.765625 C 55.257812 -82.765625 50.941406 -81.425781 47.390625 -78.75 C 43.847656 -76.070312 41.164062 -72.320312 39.34375 -67.5 C 37.519531 -62.6875 36.609375 -57.015625 36.609375 -50.484375 Z M 36.609375 -50.484375 "/></g></g></g></g></g></g></svg>