<svg xmlns="http://www.w3.org/2000/svg" xmlns:xlink="http://www.w3.org/1999/xlink" width="1000" zoomAndPan="magnify" viewBox="0 0 750 456.749983" height="609" preserveAspectRatio="xMidYMid meet" version="1.0"><defs><g/><clipPath id="c17c3b9f2e"><path d="M 0.207031 0 L 377.25 0 L 377.25 377.042969 L 0.207031 377.042969 Z M 0.207031 0 " clip-rule="nonzero"/></clipPath><clipPath id="c5a21e6e7c"><path d="M 22.828125 0 L 354.625 0 C 360.625 0 366.378906 2.382812 370.621094 6.625 C 374.863281 10.871094 377.25 16.625 377.25 22.621094 L 377.25 354.421875 C 377.25 360.421875 374.863281 366.175781 370.621094 370.417969 C 366.378906 374.660156 360.625 377.042969 354.625 377.042969 L 22.828125 377.042969 C 10.335938 377.042969 0.207031 366.914062 0.207031 354.421875 L 0.207031 22.621094 C 0.207031 10.128906 10.335938 0 22.828125 0 Z M 22.828125 0 " clip-rule="nonzero"/></clipPath><clipPath id="f62b4b879d"><path d="M 22.828125 0 L 354.625 0 C 360.625 0 366.378906 2.382812 370.621094 6.625 C 374.863281 10.871094 377.25 16.625 377.25 22.621094 L 377.25 354.421875 C 377.25 360.421875 374.863281 366.175781 370.621094 370.417969 C 366.378906 374.660156 360.625 377.042969 354.625 377.042969 L 22.828125 377.042969 C 10.335938 377.042969 0.207031 366.914062 0.207031 354.421875 L 0.207031 22.621094 C 0.207031 10.128906 10.335938 0 22.828125 0 Z M 22.828125 0 " clip-rule="nonzero"/></clipPath><clipPath id="19f95b0a68"><path d="M 188.726562 188.523438 L 355.304688 188.523438 L 355.304688 355.101562 L 188.726562 355.101562 Z M 188.726562 188.523438 " clip-rule="nonzero"/></clipPath><clipPath id="a07623c71e"><path d="M 200.039062 188.523438 L 343.996094 188.523438 C 346.996094 188.523438 349.871094 189.714844 351.992188 191.835938 C 354.113281 193.957031 355.304688 196.832031 355.304688 199.832031 L 355.304688 343.789062 C 355.304688 346.789062 354.113281 349.667969 351.992188 351.789062 C 349.871094 353.910156 346.996094 355.101562 343.996094 355.101562 L 200.039062 355.101562 C 193.792969 355.101562 188.726562 350.035156 188.726562 343.789062 L 188.726562 199.832031 C 188.726562 193.585938 193.792969 188.523438 200.039062 188.523438 Z M 200.039062 188.523438 " clip-rule="nonzero"/></clipPath><clipPath id="aa817b448b"><path d="M 200.039062 188.523438 L 343.996094 188.523438 C 346.996094 188.523438 349.871094 189.714844 351.992188 191.835938 C 354.113281 193.957031 355.304688 196.832031 355.304688 199.832031 L 355.304688 343.789062 C 355.304688 346.789062 354.113281 349.667969 351.992188 351.789062 C 349.871094 353.910156 346.996094 355.101562 343.996094 355.101562 L 200.039062 355.101562 C 193.792969 355.101562 188.726562 350.035156 188.726562 343.789062 L 188.726562 199.832031 C 188.726562 193.585938 193.792969 188.523438 200.039062 188.523438 Z M 200.039062 188.523438 " clip-rule="nonzero"/></clipPath><clipPath id="9d85177a61"><path d="M 188.726562 188.523438 L 355.304688 188.523438 L 355.304688 222.628906 L 188.726562 222.628906 Z M 188.726562 188.523438 " clip-rule="nonzero"/></clipPath><clipPath id="ca2d7f2443"><path d="M 188.730469 188.523438 L 222.835938 188.523438 L 222.835938 355.097656 L 188.730469 355.097656 Z M 188.730469 188.523438 " clip-rule="nonzero"/></clipPath><clipPath id="8340f0b804"><path d="M 22.148438 188.523438 L 188.726562 188.523438 L 188.726562 355.101562 L 22.148438 355.101562 Z M 22.148438 188.523438 " clip-rule="nonzero"/></clipPath><clipPath id="90715e1747"><path d="M 33.460938 188.523438 L 177.414062 188.523438 C 180.417969 188.523438 183.292969 189.714844 185.414062 191.835938 C 187.535156 193.957031 188.726562 196.832031 188.726562 199.832031 L 188.726562 343.789062 C 188.726562 346.789062 187.535156 349.667969 185.414062 351.789062 C 183.292969 353.910156 180.417969 355.101562 177.414062 355.101562 L 33.460938 355.101562 C 27.210938 355.101562 22.148438 350.035156 22.148438 343.789062 L 22.148438 199.832031 C 22.148438 193.585938 27.210938 188.523438 33.460938 188.523438 Z M 33.460938 188.523438 " clip-rule="nonzero"/></clipPath><clipPath id="ab33dd3570"><path d="M 33.460938 188.523438 L 177.414062 188.523438 C 180.417969 188.523438 183.292969 189.714844 185.414062 191.835938 C 187.535156 193.957031 188.726562 196.832031 188.726562 199.832031 L 188.726562 343.789062 C 188.726562 346.789062 187.535156 349.667969 185.414062 351.789062 C 183.292969 353.910156 180.417969 355.101562 177.414062 355.101562 L 33.460938 355.101562 C 27.210938 355.101562 22.148438 350.035156 22.148438 343.789062 L 22.148438 199.832031 C 22.148438 193.585938 27.210938 188.523438 33.460938 188.523438 Z M 33.460938 188.523438 " clip-rule="nonzero"/></clipPath><clipPath id="667998d8c5"><path d="M 22.148438 188.523438 L 188.726562 188.523438 L 188.726562 218.042969 L 22.148438 218.042969 Z M 22.148438 188.523438 " clip-rule="nonzero"/></clipPath><clipPath id="90775b1e63"><path d="M 159.210938 188.519531 L 188.730469 188.519531 L 188.730469 355.097656 L 159.210938 355.097656 Z M 159.210938 188.519531 " clip-rule="nonzero"/></clipPath><clipPath id="bc1a3296b0"><path d="M 22.148438 21.941406 L 188.726562 21.941406 L 188.726562 188.523438 L 22.148438 188.523438 Z M 22.148438 21.941406 " clip-rule="nonzero"/></clipPath><clipPath id="79d41b289c"><path d="M 33.460938 21.941406 L 177.414062 21.941406 C 180.417969 21.941406 183.292969 23.136719 185.414062 25.257812 C 187.535156 27.375 188.726562 30.253906 188.726562 33.253906 L 188.726562 177.210938 C 188.726562 180.210938 187.535156 183.089844 185.414062 185.207031 C 183.292969 187.328125 180.417969 188.523438 177.414062 188.523438 L 33.460938 188.523438 C 27.210938 188.523438 22.148438 183.457031 22.148438 177.210938 L 22.148438 33.253906 C 22.148438 27.007812 27.210938 21.941406 33.460938 21.941406 Z M 33.460938 21.941406 " clip-rule="nonzero"/></clipPath><clipPath id="5d0dcf88b3"><path d="M 33.460938 21.941406 L 177.414062 21.941406 C 180.417969 21.941406 183.292969 23.136719 185.414062 25.257812 C 187.535156 27.375 188.726562 30.253906 188.726562 33.253906 L 188.726562 177.210938 C 188.726562 180.210938 187.535156 183.089844 185.414062 185.207031 C 183.292969 187.328125 180.417969 188.523438 177.414062 188.523438 L 33.460938 188.523438 C 27.210938 188.523438 22.148438 183.457031 22.148438 177.210938 L 22.148438 33.253906 C 22.148438 27.007812 27.210938 21.941406 33.460938 21.941406 Z M 33.460938 21.941406 " clip-rule="nonzero"/></clipPath><clipPath id="3fe783dd93"><path d="M 22.148438 160.613281 L 188.726562 160.613281 L 188.726562 188.523438 L 22.148438 188.523438 Z M 22.148438 160.613281 " clip-rule="nonzero"/></clipPath><clipPath id="c898825647"><path d="M 160.820312 21.9375 L 188.730469 21.9375 L 188.730469 188.519531 L 160.820312 188.519531 Z M 160.820312 21.9375 " clip-rule="nonzero"/></clipPath><clipPath id="5b75a1a194"><path d="M 188.726562 21.941406 L 355.304688 21.941406 L 355.304688 188.523438 L 188.726562 188.523438 Z M 188.726562 21.941406 " clip-rule="nonzero"/></clipPath><clipPath id="445a7f94b9"><path d="M 200.039062 21.941406 L 343.996094 21.941406 C 346.996094 21.941406 349.871094 23.136719 351.992188 25.257812 C 354.113281 27.375 355.304688 30.253906 355.304688 33.253906 L 355.304688 177.210938 C 355.304688 180.210938 354.113281 183.089844 351.992188 185.207031 C 349.871094 187.328125 346.996094 188.523438 343.996094 188.523438 L 200.039062 188.523438 C 193.792969 188.523438 188.726562 183.457031 188.726562 177.210938 L 188.726562 33.253906 C 188.726562 27.007812 193.792969 21.941406 200.039062 21.941406 Z M 200.039062 21.941406 " clip-rule="nonzero"/></clipPath><clipPath id="7abff09b54"><path d="M 200.039062 21.941406 L 343.996094 21.941406 C 346.996094 21.941406 349.871094 23.136719 351.992188 25.257812 C 354.113281 27.375 355.304688 30.253906 355.304688 33.253906 L 355.304688 177.210938 C 355.304688 180.210938 354.113281 183.089844 351.992188 185.207031 C 349.871094 187.328125 346.996094 188.523438 343.996094 188.523438 L 200.039062 188.523438 C 193.792969 188.523438 188.726562 183.457031 188.726562 177.210938 L 188.726562 33.253906 C 188.726562 27.007812 193.792969 21.941406 200.039062 21.941406 Z M 200.039062 21.941406 " clip-rule="nonzero"/></clipPath><clipPath id="9c718de473"><path d="M 188.726562 21.941406 L 211.796875 21.941406 L 211.796875 188.523438 L 188.726562 188.523438 Z M 188.726562 21.941406 " clip-rule="nonzero"/></clipPath><clipPath id="309992d0ea"><path d="M 188.722656 165.453125 L 355.300781 165.453125 L 355.300781 188.523438 L 188.722656 188.523438 Z M 188.722656 165.453125 " clip-rule="nonzero"/></clipPath><clipPath id="990a94a823"><path d="M 44.304688 44.101562 L 333.121094 44.101562 L 333.121094 332.914062 L 44.304688 332.914062 Z M 44.304688 44.101562 " clip-rule="nonzero"/></clipPath><clipPath id="bd04767f88"><path d="M 410 0 L 749.792969 0 L 749.792969 379 L 410 379 Z M 410 0 " clip-rule="nonzero"/></clipPath><clipPath id="62d5aa5645"><rect x="0" width="340" y="0" height="379"/></clipPath><clipPath id="6cccf61409"><path d="M 0.207031 419.714844 L 749.792969 419.714844 L 749.792969 456.5 L 0.207031 456.5 Z M 0.207031 419.714844 " clip-rule="nonzero"/></clipPath><clipPath id="4af45835b9"><path d="M 0.207031 0.714844 L 749.792969 0.714844 L 749.792969 37.5 L 0.207031 37.5 Z M 0.207031 0.714844 " clip-rule="nonzero"/></clipPath><clipPath id="21fac9c985"><rect x="0" width="750" y="0" height="38"/></clipPath></defs><g clip-path="url(#c17c3b9f2e)"><g clip-path="url(#c5a21e6e7c)"><g clip-path="url(#f62b4b879d)"><path fill="#ffffff" d="M -82.746094 -82.949219 L 460.199219 -82.949219 L 460.199219 459.992188 L -82.746094 459.992188 Z M -82.746094 -82.949219 " fill-opacity="1" fill-rule="nonzero"/></g></g></g><g clip-path="url(#19f95b0a68)"><g clip-path="url(#a07623c71e)"><g clip-path="url(#aa817b448b)"><path fill="#295c28" d="M 188.726562 188.523438 L 355.304688 188.523438 L 355.304688 355.101562 L 188.726562 355.101562 Z M 188.726562 188.523438 " fill-opacity="1" fill-rule="nonzero"/></g></g></g><g clip-path="url(#9d85177a61)"><path fill="#295c28" d="M 188.726562 188.523438 L 355.277344 188.523438 L 355.277344 222.628906 L 188.726562 222.628906 Z M 188.726562 188.523438 " fill-opacity="1" fill-rule="nonzero"/></g><g clip-path="url(#ca2d7f2443)"><path fill="#295c28" d="M 188.730469 188.550781 L 222.835938 188.550781 L 222.835938 355.097656 L 188.730469 355.097656 Z M 188.730469 188.550781 " fill-opacity="1" fill-rule="nonzero"/></g><g clip-path="url(#8340f0b804)"><g clip-path="url(#90715e1747)"><g clip-path="url(#ab33dd3570)"><path fill="#439a41" d="M 22.148438 188.523438 L 188.726562 188.523438 L 188.726562 355.101562 L 22.148438 355.101562 Z M 22.148438 188.523438 " fill-opacity="1" fill-rule="nonzero"/></g></g></g><g clip-path="url(#667998d8c5)"><path fill="#439a41" d="M 22.148438 188.523438 L 188.769531 188.523438 L 188.769531 218.042969 L 22.148438 218.042969 Z M 22.148438 188.523438 " fill-opacity="1" fill-rule="nonzero"/></g><g clip-path="url(#90775b1e63)"><path fill="#439a41" d="M 159.210938 188.476562 L 188.730469 188.476562 L 188.730469 355.097656 L 159.210938 355.097656 Z M 159.210938 188.476562 " fill-opacity="1" fill-rule="nonzero"/></g><g clip-path="url(#bc1a3296b0)"><g clip-path="url(#79d41b289c)"><g clip-path="url(#5d0dcf88b3)"><path fill="#a5ffa3" d="M 22.148438 21.941406 L 188.726562 21.941406 L 188.726562 188.523438 L 22.148438 188.523438 Z M 22.148438 21.941406 " fill-opacity="1" fill-rule="nonzero"/></g></g></g><g clip-path="url(#3fe783dd93)"><path fill="#a5ffa3" d="M 22.148438 160.613281 L 188.71875 160.613281 L 188.71875 188.523438 L 22.148438 188.523438 Z M 22.148438 160.613281 " fill-opacity="1" fill-rule="nonzero"/></g><g clip-path="url(#c898825647)"><path fill="#a5ffa3" d="M 160.820312 21.949219 L 188.730469 21.949219 L 188.730469 188.519531 L 160.820312 188.519531 Z M 160.820312 21.949219 " fill-opacity="1" fill-rule="nonzero"/></g><g clip-path="url(#5b75a1a194)"><g clip-path="url(#445a7f94b9)"><g clip-path="url(#7abff09b54)"><path fill="#62e060" d="M 188.726562 21.941406 L 355.304688 21.941406 L 355.304688 188.523438 L 188.726562 188.523438 Z M 188.726562 21.941406 " fill-opacity="1" fill-rule="nonzero"/></g></g></g><g clip-path="url(#9c718de473)"><path fill="#62e060" d="M 188.726562 21.941406 L 211.796875 21.941406 L 211.796875 188.566406 L 188.726562 188.566406 Z M 188.726562 21.941406 " fill-opacity="1" fill-rule="nonzero"/></g><g clip-path="url(#309992d0ea)"><path fill="#62e060" d="M 188.679688 165.453125 L 355.300781 165.453125 L 355.300781 188.523438 L 188.679688 188.523438 Z M 188.679688 165.453125 " fill-opacity="1" fill-rule="nonzero"/></g><g clip-path="url(#990a94a823)"><path fill="#ffffff" d="M 309.074219 44.101562 L 68.378906 44.101562 C 55.140625 44.101562 44.304688 54.9375 44.304688 68.171875 L 44.304688 308.871094 C 44.304688 322.105469 55.140625 332.9375 68.378906 332.9375 L 309.078125 332.9375 C 322.308594 332.9375 333.144531 322.105469 333.144531 308.867188 L 333.144531 68.171875 C 333.144531 54.9375 322.308594 44.101562 309.074219 44.101562 Z M 104.480469 140.382812 C 104.480469 120.449219 120.652344 104.277344 140.585938 104.277344 C 160.519531 104.277344 176.691406 120.449219 176.691406 140.382812 L 152.621094 140.382812 C 152.621094 133.730469 147.230469 128.347656 140.585938 128.347656 C 133.945312 128.347656 128.554688 133.730469 128.554688 140.382812 L 128.554688 188.511719 C 128.554688 195.148438 133.941406 200.542969 140.585938 200.542969 C 147.234375 200.542969 152.621094 195.148438 152.621094 188.511719 L 176.691406 188.511719 C 176.691406 208.453125 160.519531 224.613281 140.585938 224.613281 C 120.652344 224.613281 104.480469 208.449219 104.480469 188.511719 Z M 272.96875 272.761719 L 104.480469 272.761719 L 104.480469 248.695312 L 272.972656 248.695312 L 272.972656 272.761719 Z M 242.882812 224.625 L 218.8125 224.625 L 188.726562 104.277344 L 213.539062 104.277344 L 230.847656 173.527344 L 248.160156 104.277344 L 272.96875 104.277344 Z M 242.882812 224.625 " fill-opacity="1" fill-rule="nonzero"/></g><g clip-path="url(#bd04767f88)"><g transform="matrix(1, 0, 0, 1, 410, 0)"><g clip-path="url(#62d5aa5645)"><g fill="#ffffff" fill-opacity="1"><g transform="translate(42.94787, 178.03506)"><g><path d="M 128.515625 -89.203125 L 103.921875 -89.203125 C 103.222656 -93.234375 101.929688 -96.816406 100.046875 -99.953125 C 98.160156 -103.085938 95.816406 -105.75 93.015625 -107.9375 C 90.210938 -110.125 87.023438 -111.773438 83.453125 -112.890625 C 79.878906 -114.015625 76.03125 -114.578125 71.90625 -114.578125 C 64.59375 -114.578125 58.109375 -112.742188 52.453125 -109.078125 C 46.804688 -105.421875 42.378906 -100.078125 39.171875 -93.046875 C 35.972656 -86.015625 34.375 -77.4375 34.375 -67.3125 C 34.375 -57.007812 35.984375 -48.34375 39.203125 -41.3125 C 42.429688 -34.28125 46.859375 -28.976562 52.484375 -25.40625 C 58.117188 -21.832031 64.570312 -20.046875 71.84375 -20.046875 C 75.875 -20.046875 79.65625 -20.582031 83.1875 -21.65625 C 86.71875 -22.726562 89.894531 -24.316406 92.71875 -26.421875 C 95.539062 -28.523438 97.925781 -31.109375 99.875 -34.171875 C 101.832031 -37.242188 103.179688 -40.753906 103.921875 -44.703125 L 128.515625 -44.5625 C 127.585938 -38.164062 125.601562 -32.160156 122.5625 -26.546875 C 119.519531 -20.941406 115.539062 -16.003906 110.625 -11.734375 C 105.71875 -7.460938 99.976562 -4.128906 93.40625 -1.734375 C 86.832031 0.648438 79.535156 1.84375 71.515625 1.84375 C 59.679688 1.84375 49.117188 -0.894531 39.828125 -6.375 C 30.546875 -11.851562 23.226562 -19.765625 17.875 -30.109375 C 12.53125 -40.453125 9.859375 -52.851562 9.859375 -67.3125 C 9.859375 -81.820312 12.550781 -94.234375 17.9375 -104.546875 C 23.332031 -114.867188 30.675781 -122.769531 39.96875 -128.25 C 49.257812 -133.726562 59.773438 -136.46875 71.515625 -136.46875 C 79.015625 -136.46875 85.984375 -135.414062 92.421875 -133.3125 C 98.867188 -131.207031 104.609375 -128.128906 109.640625 -124.078125 C 114.679688 -120.023438 118.832031 -115.070312 122.09375 -109.21875 C 125.363281 -103.363281 127.503906 -96.691406 128.515625 -89.203125 Z M 128.515625 -89.203125 "/></g></g></g><g fill="#ffffff" fill-opacity="1"><g transform="translate(169.474727, 178.03506)"><g><path d="M 31.296875 -134.625 L 66.328125 -28.65625 L 67.703125 -28.65625 L 102.671875 -134.625 L 129.5 -134.625 L 82.03125 0 L 51.9375 0 L 4.53125 -134.625 Z M 31.296875 -134.625 "/></g></g></g><g fill="#ffffff" fill-opacity="1"><g transform="translate(0.828185, 333.275598)"><g><path d="M 13.28125 0 L 13.28125 -134.625 L 37.671875 -134.625 L 37.671875 -77.640625 L 100.046875 -77.640625 L 100.046875 -134.625 L 124.5 -134.625 L 124.5 0 L 100.046875 0 L 100.046875 -57.1875 L 37.671875 -57.1875 L 37.671875 0 Z M 13.28125 0 "/></g></g></g><g fill="#ffffff" fill-opacity="1"><g transform="translate(127.420765, 333.275598)"><g><path d="M 76.578125 -42.46875 L 76.578125 -100.96875 L 100.375 -100.96875 L 100.375 0 L 77.296875 0 L 77.296875 -17.953125 L 76.25 -17.953125 C 73.96875 -12.296875 70.226562 -7.671875 65.03125 -4.078125 C 59.84375 -0.484375 53.460938 1.3125 45.890625 1.3125 C 39.265625 1.3125 33.421875 -0.164062 28.359375 -3.125 C 23.296875 -6.082031 19.34375 -10.394531 16.5 -16.0625 C 13.65625 -21.738281 12.234375 -28.613281 12.234375 -36.6875 L 12.234375 -100.96875 L 36.015625 -100.96875 L 36.015625 -40.359375 C 36.015625 -33.960938 37.769531 -28.878906 41.28125 -25.109375 C 44.789062 -21.335938 49.390625 -19.453125 55.078125 -19.453125 C 58.585938 -19.453125 61.984375 -20.304688 65.265625 -22.015625 C 68.554688 -23.722656 71.265625 -26.273438 73.390625 -29.671875 C 75.515625 -33.078125 76.578125 -37.34375 76.578125 -42.46875 Z M 76.578125 -42.46875 "/></g></g></g><g fill="#ffffff" fill-opacity="1"><g transform="translate(228.905455, 333.275598)"><g><path d="M 13.28125 0 L 13.28125 -134.625 L 37.078125 -134.625 L 37.078125 -84.265625 L 38.0625 -84.265625 C 39.289062 -86.722656 41.019531 -89.34375 43.25 -92.125 C 45.488281 -94.90625 48.515625 -97.289062 52.328125 -99.28125 C 56.140625 -101.28125 61.003906 -102.28125 66.921875 -102.28125 C 74.722656 -102.28125 81.765625 -100.296875 88.046875 -96.328125 C 94.335938 -92.367188 99.332031 -86.519531 103.03125 -78.78125 C 106.738281 -71.050781 108.59375 -61.578125 108.59375 -50.359375 C 108.59375 -39.265625 106.773438 -29.835938 103.140625 -22.078125 C 99.503906 -14.328125 94.550781 -8.410156 88.28125 -4.328125 C 82.007812 -0.253906 74.910156 1.78125 66.984375 1.78125 C 61.203125 1.78125 56.40625 0.816406 52.59375 -1.109375 C 48.78125 -3.046875 45.722656 -5.382812 43.421875 -8.125 C 41.117188 -10.863281 39.332031 -13.457031 38.0625 -15.90625 L 36.6875 -15.90625 L 36.6875 0 Z M 36.609375 -50.484375 C 36.609375 -43.953125 37.539062 -38.234375 39.40625 -33.328125 C 41.269531 -28.421875 43.960938 -24.597656 47.484375 -21.859375 C 51.015625 -19.117188 55.300781 -17.75 60.34375 -17.75 C 65.601562 -17.75 70.003906 -19.160156 73.546875 -21.984375 C 77.097656 -24.816406 79.785156 -28.695312 81.609375 -33.625 C 83.429688 -38.550781 84.34375 -44.171875 84.34375 -50.484375 C 84.34375 -56.753906 83.441406 -62.320312 81.640625 -67.1875 C 79.847656 -72.050781 77.175781 -75.863281 73.625 -78.625 C 70.070312 -81.382812 65.644531 -82.765625 60.34375 -82.765625 C 55.257812 -82.765625 50.941406 -81.425781 47.390625 -78.75 C 43.847656 -76.070312 41.164062 -72.320312 39.34375 -67.5 C 37.519531 -62.6875 36.609375 -57.015625 36.609375 -50.484375 Z M 36.609375 -50.484375 "/></g></g></g></g></g></g><g clip-path="url(#6cccf61409)"><g transform="matrix(1, 0, 0, 1, 0.000000000000000028, 419)"><g clip-path="url(#21fac9c985)"><g clip-path="url(#4af45835b9)"><path fill="#ffffff" d="M 0.207031 0.714844 L 750.253906 0.714844 L 750.253906 37.5 L 0.207031 37.5 Z M 0.207031 0.714844 " fill-opacity="1" fill-rule="nonzero"/></g></g></g></g></svg>